<?xml version="1.0" standalone="no"?>
<!DOCTYPE svg PUBLIC "-//W3C//DTD SVG 1.1//EN" "http://www.w3.org/Graphics/SVG/1.1/DTD/svg11.dtd">
<svg t="1739005204106" class="icon" viewBox="0 0 1024 1024" version="1.1"
  xmlns="http://www.w3.org/2000/svg" p-id="12516" xmlns:xlink="http://www.w3.org/1999/xlink"
  width="64" height="64">
  <path
    d="M890.175304 1023.994882H200.972489c-56.296865 0-102.095969-49.131158-102.095969-109.512476v-116.637236a25.591811 25.591811 0 1 1 51.183621 0v116.637236c0 32.163788 22.838132 58.328855 50.912348 58.328854h689.197697c28.074216 0 50.912348-26.165067 50.912348-58.328854V110.525912c0-32.174024-22.838132-58.34421-50.912348-58.34421H200.972489c-28.074216 0-50.912348 26.175304-50.912348 58.34421v109.671145a25.591811 25.591811 0 0 1-51.183621 0V110.525912c0-60.396673 45.799104-109.527831 102.095969-109.527831h689.197697c56.296865 0 102.095969 49.136276 102.095969 109.527831v803.951375c0.005118 60.386436-45.793986 109.517594-102.090851 109.517595z"
    fill="white" p-id="12517"></path>
  <path
    d="M193.525272 682.446577h-138.195777a25.591811 25.591811 0 1 1 0-51.183621h138.195777a25.591811 25.591811 0 1 1 0 51.183621zM193.525272 392.409469h-138.195777a25.591811 25.591811 0 0 1 0-51.183621h138.195777a25.591811 25.591811 0 0 1 0 51.183621zM193.525272 540.841971h-138.195777a25.591811 25.591811 0 1 1 0-51.183622h138.195777a25.591811 25.591811 0 0 1 0 51.183622zM812.145873 834.861164H320.568138c-36.949456 0-67.03007-30.070377-67.03007-67.03007 0-2.149712 0.491363-53.174664 41.289827-103.457454 23.462572-28.877799 55.457454-51.741523 95.104287-68.012795 47.861804-19.659629 107.25016-29.589251 176.440179-29.589252 69.169546 0 128.511836 9.970569 176.429942 29.589252 39.631478 16.271273 71.631478 39.134997 95.083813 68.012795 40.84453 50.28279 41.289827 101.307742 41.289828 103.457454-0.005118 36.959693-30.075496 67.03007-67.030071 67.03007z m-513.924504-66.896993a22.331414 22.331414 0 0 0 22.341651 22.213692h491.577735c12.284069 0 22.300704-9.965451 22.346769-22.213692-0.046065-1.5611-1.433141-39.994882-33.033909-77.486884-43.516315-51.715931-124.806142-79.017274-235.091491-79.017274-110.300704 0-191.590531 27.34229-235.117082 79.017274-31.590531 37.527831-32.977607 75.925784-33.023673 77.486884z m268.145873-245.921945c-98.589891 0-178.769034-80.168906-178.769033-178.758797 0-98.579655 80.179143-178.74856 178.769033-178.74856 98.564299 0 178.74856 80.174024 178.748561 178.74856 0 98.59501-80.184261 178.758797-178.748561 178.758797z m0-312.818937c-73.924504 0-134.070377 60.150992-134.070377 134.055022 0 73.929623 60.140755 134.065259 134.070377 134.065259 73.904031 0 134.055022-60.140755 134.055023-134.065259 0-73.898912-60.145873-134.055022-134.055023-134.055022z m-357.517594 134.06014"
    fill="white" p-id="12518"></path>
</svg>