<?xml version="1.0" standalone="no"?><!DOCTYPE svg PUBLIC "-//W3C//DTD SVG 1.1//EN" "http://www.w3.org/Graphics/SVG/1.1/DTD/svg11.dtd"><svg t="1738745841166" class="icon" viewBox="0 0 1024 1024" version="1.1" xmlns="http://www.w3.org/2000/svg" p-id="31263" xmlns:xlink="http://www.w3.org/1999/xlink" width="64" height="64"><path d="M521.72 964.94666667c-247.4 0-448.68-201.28-448.68-448.68S274.32 67.54666667 521.72 67.54666667 970.4 268.82666667 970.4 516.22666667s-201.28 448.72-448.68 448.72z m0-856.6c-224.92 0-407.88 182.96-407.88 407.88S296.8 924.14666667 521.72 924.14666667 929.6 741.18666667 929.6 516.26666667 746.64 108.34666667 521.72 108.34666667z" p-id="31264" fill="#ffffff"></path><path d="M683.8 383.06666667c-29 0-55.16 12.12-73.88 31.48l-154.88-55.12c0.56-3.64 1.12-7.28 1.12-11.08 0-41.64-33.88-75.52-75.52-75.52s-75.52 33.88-75.52 75.52 33.88 75.52 75.52 75.52c23.16 0 43.64-10.68 57.52-27.16l149.48 53.2c-4.28 11.32-6.92 23.44-6.92 36.24 0 19 5.52 36.56 14.52 51.88l-69.84 47.76c-23.92-31.04-61.32-51.12-103.4-51.12-72.04 0-130.64 58.6-130.64 130.64s58.6 130.64 130.64 130.64 130.64-58.6 130.64-130.64c0-15.28-2.76-29.88-7.6-43.48l77.68-53.12c17.16 12.72 38.16 20.52 61.12 20.52 56.84 0 103.08-46.24 103.08-103.08-0.08-56.84-46.28-103.08-103.12-103.08z m-303.16 0c-19.16 0-34.72-15.56-34.72-34.72 0-19.16 15.56-34.72 34.72-34.72 19.16 0 34.72 15.56 34.72 34.72 0 19.16-15.56 34.72-34.72 34.72z m41.32 372.08c-49.56 0-89.84-40.32-89.84-89.84 0-49.56 40.32-89.84 89.84-89.84s89.84 40.32 89.84 89.84-40.28 89.84-89.84 89.84z m261.84-206.72c-34.36 0-62.28-27.96-62.28-62.28s27.96-62.28 62.28-62.28 62.28 27.96 62.28 62.28c0 34.36-27.96 62.28-62.28 62.28z" p-id="31265" fill="#ffffff"></path></svg>