<?xml version="1.0" standalone="no"?>
<!DOCTYPE svg PUBLIC "-//W3C//DTD SVG 1.1//EN" "http://www.w3.org/Graphics/SVG/1.1/DTD/svg11.dtd">
<svg t="1739006521070" class="icon" viewBox="0 0 1024 1024" version="1.1"
  xmlns="http://www.w3.org/2000/svg" p-id="34429" xmlns:xlink="http://www.w3.org/1999/xlink"
  width="64" height="64">
  <path
    d="M521.728 693.76c0 3.072 1.536 4.608 3.584 6.656 2.56 3.072 6.144 6.144 9.216 10.24 2.56 3.072 11.264 12.8 21.504 24.576 23.04 25.6 51.712 58.368 54.272 70.144 3.072 17.408-0.512 40.96-4.096 66.048-2.56 17.92-5.632 36.864-5.632 53.248 0 9.216 0.512 15.872 1.536 15.872 3.072 0 26.624-10.24 41.472-16.896 3.584-1.536 6.144-2.56 11.264-5.12 13.824-5.632 24.064-10.24 32.256-14.336 20.992-9.728 30.72-14.336 46.592-13.312 13.824 1.024 24.064 5.632 45.056 15.36 12.288 5.632 28.16 12.8 49.152 21.504l3.072 1.536c8.704 3.584 15.36 6.144 22.528 4.096 10.24-3.072 5.12-40.448 2.048-68.096-1.024-6.656-1.536-12.8-2.048-16.384 0-2.56-1.024-9.216-1.536-14.848-2.048-17.408-3.072-24.576 2.048-36.864 3.584-8.704 8.192-13.312 15.872-22.016 5.12-5.632 12.8-13.824 23.552-27.136l1.024-1.024 37.888-43.008 1.024-1.024c2.56-2.56 4.096-5.12 5.632-7.168 0.512-1.024 1.024-2.048 1.024-2.56v-1.536c-0.512-0.512-1.536-0.512-2.56-1.024-3.072-1.024-6.144-1.536-9.728-2.048-3.072-0.512-5.632-1.024-8.704-1.536l-15.36-3.072c-32.768-7.168-91.648-19.456-103.424-31.232l-2.56-2.56-2.048-3.072-58.88-98.304c-1.536-3.072-3.584-5.12-5.12-6.656h-1.024c-1.536 1.536-3.584 3.584-5.12 6.656l-49.152 81.92-3.072 5.632c-7.68 13.312-11.264 18.944-22.016 25.088-7.168 4.096-12.8 5.12-23.04 7.168-4.608 1.024-10.24 2.048-20.48 4.096-3.072 0.512-5.632 1.536-20.992 4.608l-21.504 4.608-40.96 9.728-1.536 0.512c-2.048 1.024-1.024 0.512-1.024 1.536zM26.624 953.344c-0.512-9.728-0.512-23.04 0-36.864 0-17.92 0.512-36.864 1.024-52.224 0.512-16.384 1.536-29.696 2.048-35.84l1.536-10.24c2.56-16.384 6.144-32.768 10.24-48.64 5.12-19.456 11.776-38.4 18.944-55.808 7.68-18.432 16.384-35.328 26.112-51.2 9.728-16.384 20.48-31.744 32.256-45.568 11.264-13.824 22.528-26.112 33.792-37.376 11.264-11.264 22.016-20.992 33.792-30.208 11.264-9.216 23.552-17.408 36.864-25.6 13.312-8.192 27.136-15.872 42.496-24.064l2.56-1.536c1.536-0.512 3.072-1.536 4.608-2.048 2.048-1.024 4.096-2.048 6.144-2.56h0.512c4.096-1.536 8.192-3.584 12.8-5.632l13.312-6.656-9.216-11.264c-1.536-2.048-3.584-4.096-5.12-5.632-1.536-1.536-4.096-4.096-7.168-6.144-4.608-4.096-10.24-9.216-16.896-15.872-7.168-7.68-13.824-15.872-19.968-24.064-15.872-22.528-27.136-46.08-35.328-69.632-8.192-25.088-11.776-50.176-12.288-74.752 0-19.968 2.56-39.936 7.168-58.88 4.608-19.456 12.288-38.4 21.504-56.32 9.216-17.408 20.48-34.304 33.792-49.152 12.8-14.848 27.648-28.16 44.032-39.424 19.968-14.336 42.496-25.6 66.56-32.768C396.288 29.696 421.376 25.6 447.488 25.6c27.136 0 52.736 4.096 76.8 11.776 24.576 7.68 47.616 19.456 68.096 34.816 15.872 11.776 30.208 25.088 43.008 39.936 12.8 15.36 23.552 31.744 32.768 49.664 8.704 17.408 15.872 36.352 20.48 55.296 4.608 18.944 7.168 38.4 7.168 58.368 0 25.088-3.584 50.176-11.776 74.24-15.872 47.616-37.376 75.264-73.216 108.544-41.984 33.792-96.768 64.512-162.304 62.464-25.088 0-49.664 3.072-74.24 8.192-25.088 5.632-49.664 13.312-72.704 23.552-23.552 10.24-45.568 23.04-65.536 37.376-19.456 14.336-37.376 30.72-52.224 48.128-7.68 8.704-14.848 17.408-21.504 26.624-6.656 8.704-12.8 17.92-18.944 27.136-6.144 9.728-11.776 19.968-16.384 30.208-5.12 10.752-10.24 22.016-14.848 34.816-4.096 10.752-7.68 24.576-11.264 40.448-3.584 14.848-6.144 31.232-8.192 47.104-2.048 14.848-3.072 29.696-3.072 44.032 0 12.8 0.512 24.576 2.048 35.84l1.536 35.328c2.56 28.672-59.392 61.952-66.56-6.144z m237.056-701.44c-0.512 5.632-1.024 11.264-1.024 16.896 0 26.624 4.608 51.2 13.312 72.704 8.704 22.528 22.016 43.008 38.912 59.904 8.704 8.704 18.432 16.896 28.672 24.064 10.24 7.168 21.504 12.8 33.28 17.92 11.776 4.608 23.552 8.704 35.84 10.752 12.288 2.56 24.576 3.584 36.864 3.584 23.04 0 46.592-4.096 68.608-13.312 20.992-8.704 40.448-20.992 58.368-38.4 14.336-13.824 26.112-29.696 35.328-46.592 9.216-17.408 15.872-35.84 18.944-54.784 3.584-18.944 4.096-38.4 1.024-57.344-2.56-18.432-8.192-36.864-16.896-54.784-9.728-19.968-22.016-36.864-36.352-51.2s-31.744-26.624-50.176-35.328c-12.8-6.144-25.6-10.752-39.424-13.312-13.824-3.072-27.648-4.608-41.984-4.608-13.824 0-27.648 1.536-41.472 5.12-13.824 3.072-26.624 7.68-39.424 13.824-18.432 9.216-35.328 21.504-49.664 35.84-13.824 14.336-26.112 31.232-35.328 51.2-2.56 5.12-4.608 10.752-7.168 17.408-2.048 6.656-4.096 13.312-5.632 19.968-2.56 7.168-4.096 13.824-4.608 20.48z m219.136 488.96c-11.776-12.288-19.968-20.48-19.968-47.104 0-15.872 4.608-28.16 12.8-38.4 7.68-9.728 17.92-15.36 29.696-19.456l1.536-0.512 1.024-0.512 42.496-9.728h0.512l21.504-4.608 20.48-4.608c8.704-2.048 16.896-3.584 23.04-4.608 4.096-0.512 4.096 0 5.12-0.512 3.072-1.536-2.048 0 0-3.584l3.584-5.632 49.152-81.92c5.12-8.704 11.264-15.872 17.408-21.504 7.68-6.656 16.384-11.264 25.6-13.312l3.584-1.024h18.944l3.584 1.024c9.216 2.048 17.408 6.656 25.6 13.312 6.656 5.632 12.288 12.8 17.408 21.504l55.808 93.184c7.168 1.536 48.128 9.728 72.704 14.848 5.632 1.024 9.728 2.048 15.872 3.584 2.56 0.512 4.608 1.024 6.656 1.536 5.632 1.024 11.264 2.048 17.92 4.096 11.264 3.584 20.48 9.728 27.648 17.408 8.192 8.704 12.8 18.944 14.336 30.208l0.512 2.56v11.264l-0.512 2.56c-1.024 8.192-3.584 15.872-7.68 24.064-3.584 6.656-8.704 13.312-14.848 19.968l-36.352 41.472c-11.776 14.848-20.48 24.064-26.112 30.208-3.584 3.584-4.096 3.072-4.608 4.608-1.024 2.56 1.536 0.512 2.048 7.168 0.512 2.56 0.512 6.144 1.536 15.872 0.512 6.144 1.024 10.24 1.536 14.848 6.144 47.616 14.336 112.64-41.984 131.072-28.16 9.216-43.008 2.56-62.464-5.632l-3.072-1.536c-23.552-9.728-39.424-16.896-51.2-22.528-13.824-6.656-21.504-9.728-24.064-10.24-1.536 0-7.168 2.56-18.944 7.68-8.704 4.096-19.968 9.216-34.304 14.848l-10.24 4.608c-18.944 8.192-49.664 22.016-65.024 22.016-47.104 0-60.416-32.256-60.416-74.24 0-18.944 3.584-41.472 6.656-61.952 3.072-19.968 6.144-38.4 4.608-46.592-0.512-3.584-22.528-22.016-40.448-41.984-10.24-11.264-18.944-21.504-23.552-26.624-1.024-3.072-3.072-5.12-5.12-7.168z m41.984-40.448z"
    fill="gold" p-id="34430"></path>
</svg>