<?xml version="1.0" standalone="no"?><!DOCTYPE svg PUBLIC "-//W3C//DTD SVG 1.1//EN" "http://www.w3.org/Graphics/SVG/1.1/DTD/svg11.dtd"><svg t="1727164399342" class="icon" viewBox="0 0 1024 1024" version="1.1" xmlns="http://www.w3.org/2000/svg" p-id="6592" xmlns:xlink="http://www.w3.org/1999/xlink" width="64" height="64"><path d="M729.45618 386.588764h207.101123c25.31236 0 46.022472-20.710112 46.022472-46.022472s-20.710112-46.022472-46.022472-46.022472h-142.669663l204.8-204.8c18.408989-18.408989 18.408989-46.022472 0-64.43146s-46.022472-18.408989-64.43146 0L729.45618 230.11236V89.74382c0-25.31236-20.710112-46.022472-46.022472-46.022472s-46.022472 20.710112-46.022472 46.022472v204.8c0 50.624719 41.420225 92.044944 92.044944 92.044944zM329.060674 41.420225c-25.31236 0-46.022472 20.710112-46.022472 46.022472V230.11236L78.238202 25.31236c-18.408989-18.408989-46.022472-18.408989-64.43146 0s-18.408989 46.022472 0 64.43146l204.8 204.8H75.937079c-25.31236 0-46.022472 20.710112-46.022472 46.022472s20.710112 46.022472 46.022472 46.022472h207.101123c50.624719 0 92.044944-41.420225 92.044944-92.044944v-207.101123c0-25.31236-20.710112-46.022472-46.022472-46.022472zM793.88764 740.961798h142.669663c25.31236 0 46.022472-20.710112 46.022472-46.022472s-20.710112-46.022472-46.022472-46.022472h-207.101123c-50.624719 0-92.044944 41.420225-92.044944 92.044944v209.402247c0 25.31236 20.710112 46.022472 46.022472 46.022472s46.022472-20.710112 46.022472-46.022472V805.393258l204.8 204.8c9.204494 9.204494 20.710112 13.806742 32.21573 13.806742s23.011236-4.602247 32.21573-13.806742c18.408989-18.408989 18.408989-46.022472 0-64.43146l-204.8-204.8zM283.038202 648.916854h-207.101123c-25.31236 0-46.022472 20.710112-46.022472 46.022472s20.710112 46.022472 46.022472 46.022472h142.669663L13.806742 945.761798c-18.408989 18.408989-18.408989 46.022472 0 64.43146 9.204494 9.204494 20.710112 13.806742 32.21573 13.806742s23.011236-4.602247 32.21573-13.806742l204.8-204.8v142.669663c0 25.31236 20.710112 46.022472 46.022472 46.022472s46.022472-20.710112 46.022472-46.022472v-207.101123c0-50.624719-41.420225-92.044944-92.044944-92.044944z" fill="#231815" p-id="6593"></path></svg>