<?xml version="1.0" standalone="no"?>
<!DOCTYPE svg PUBLIC "-//W3C//DTD SVG 1.1//EN" "http://www.w3.org/Graphics/SVG/1.1/DTD/svg11.dtd">
<svg t="1739004883406" class="icon" viewBox="0 0 1024 1024" version="1.1"
  xmlns="http://www.w3.org/2000/svg" p-id="5124" xmlns:xlink="http://www.w3.org/1999/xlink"
  width="64" height="64">
  <path
    d="M408.36 534c-37.7-30.62-61.82-77.53-61.82-130.12 0-92.26 74.23-167.05 165.8-167.05 91.57 0 165.8 74.79 165.8 167.05 0 52.59-24.12 99.5-61.82 130.12 100.09 41.29 170.59 140.41 170.59 256.11 0 11.16-0.66 22.17-1.93 32.98H725.3c1.65-10.92 2.47-21.94 2.47-32.98 0-119.88-96.46-217.06-215.44-217.06s-215.44 97.18-215.44 217.06c0 11.21 0.84 22.23 2.47 32.98H239.7a281.847 281.847 0 0 1-1.93-32.98c0-115.7 70.51-214.81 170.59-256.11z m103.99-22.65c58.91 0 106.66-48.11 106.66-107.46s-47.75-107.46-106.66-107.46-106.66 48.11-106.66 107.46c0 59.34 47.75 107.46 106.66 107.46zM685.59 200.9c91.51 0 165.7 74.8 165.7 167.08 0 52.6-24.1 99.52-61.78 130.14C889.54 539.43 960 638.56 960 754.29c0 11.16-0.66 22.17-1.93 32.99h-59.64c1.65-10.92 2.47-21.95 2.47-32.99 0-119.9-87.12-217.1-206.03-217.1-17.71-0.49-30.16-13.82-30.16-30.86s11.52-29.92 30.16-30.86c58.87 0 97.32-48.12 97.32-107.48 0-59.36-47.72-107.48-106.6-107.48-4.12 0-8.93 0.49-14.43 1.49-14.34 2.58-28.06-6.95-30.65-21.29-0.12-0.66-0.21-1.32-0.28-1.98-1.85-18.01 10.97-34.23 28.93-36.58 6.32-0.84 11.79-1.25 16.43-1.25z m-347.18 0c-91.51 0-165.7 74.8-165.7 167.08 0 52.6 24.1 99.52 61.78 130.14C134.46 539.43 64 638.56 64 754.29c0 11.16 0.66 22.17 1.93 32.99h59.64a220.827 220.827 0 0 1-2.47-32.99c0-119.9 87.12-217.1 206.03-217.1 14.09 1.37 30.16-13.82 30.16-30.86s-16.07-30.85-30.16-30.86c-58.87 0-97.32-48.12-97.32-107.48 0-59.36 47.72-107.48 106.6-107.48 4.12 0 8.93 0.49 14.43 1.49 14.34 2.58 28.06-6.95 30.65-21.29 0.12-0.66 0.21-1.32 0.28-1.98 1.85-18.01-10.97-34.23-28.93-36.58-6.32-0.84-11.8-1.25-16.43-1.25z"
    p-id="5125" fill="gold"></path>
</svg>