<?xml version="1.0" standalone="no"?><!DOCTYPE svg PUBLIC "-//W3C//DTD SVG 1.1//EN" "http://www.w3.org/Graphics/SVG/1.1/DTD/svg11.dtd"><svg t="1716436720599" class="icon" viewBox="0 0 1024 1024" version="1.1" xmlns="http://www.w3.org/2000/svg" p-id="14145" xmlns:xlink="http://www.w3.org/1999/xlink" width="200" height="200"><path d="M755.1 430.2H247.2c-27 0-48.7 21.7-48.7 48.7v356.8c0 27 21.7 48.7 48.7 48.7h507.9c27 0 48.7-21.7 48.7-48.7V478.9c0-27-21.7-48.7-48.7-48.7zM528.6 666.5v77.8c0 3.7-2.9 6.6-6.6 6.6h-41.8c-3.7 0-6.6-2.9-6.6-6.6v-77.8c-19.7-10.2-33.6-30.3-33.6-54.1 0-33.6 27.4-61 61-61s61 27.4 61 61c0.2 23.8-13.8 44.3-33.4 54.1zM379.1 302.8c0-67.2 54.9-122.1 122.1-122.1 67.2 0 122.1 54.9 122.1 122.1v127H699V299.5c0-109.4-88.9-197.8-197.8-197.8-109.4 0-197.8 88.9-197.8 197.8v130.3h76.2l-0.5-127z m0 0" fill="#39B54A" p-id="14146"></path></svg>