<?xml version="1.0" standalone="no"?><!DOCTYPE svg PUBLIC "-//W3C//DTD SVG 1.1//EN" "http://www.w3.org/Graphics/SVG/1.1/DTD/svg11.dtd"><svg t="1718444202143" class="icon" viewBox="0 0 1024 1024" version="1.1" xmlns="http://www.w3.org/2000/svg" p-id="7296" width="64" height="64" xmlns:xlink="http://www.w3.org/1999/xlink"><path d="M512 85.333333c235.648 0 426.666667 191.018667 426.666667 426.666667s-191.018667 426.666667-426.666667 426.666667S85.333333 747.648 85.333333 512 276.352 85.333333 512 85.333333z m0 85.333334a341.333333 341.333333 0 1 0 0 682.666666 341.333333 341.333333 0 0 0 0-682.666666z m-7.936 72.704c6.698667 1.792 7.765333 13.653333 7.893333 36.906666L512 413.866667c0 10.069333 0 15.104 3.114667 18.218666 2.602667 2.56 6.528 3.029333 13.610666 3.114667h49.962667c65.28 0 97.877333 0 110.208 21.205333 12.373333 21.205333-3.754667 49.578667-36.010667 106.282667l-100.992 177.792c-16 28.16-24.021333 42.24-31.957333 40.106667C512 778.538667 512 762.368 512 729.984V610.133333c0-10.069333 0-15.104-3.114667-18.218666-3.114667-3.114667-8.149333-3.114667-18.218666-3.114667H424.746667c-51.669333-0.256-78.677333-2.346667-89.642667-21.205333-12.373333-21.205333 3.754667-49.578667 36.010667-106.282667l100.992-177.792c16-28.16 24.021333-42.24 31.957333-40.106667z" fill="#bfbfbf" p-id="7297"></path></svg>