<?xml version="1.0" standalone="no"?><!DOCTYPE svg PUBLIC "-//W3C//DTD SVG 1.1//EN" "http://www.w3.org/Graphics/SVG/1.1/DTD/svg11.dtd"><svg t="1718849062264" class="icon" viewBox="0 0 1024 1024" version="1.1" xmlns="http://www.w3.org/2000/svg" p-id="13495" xmlns:xlink="http://www.w3.org/1999/xlink" width="64" height="64"><path d="M512.926503 514.138085m-509.861915 0a509.861915 509.861915 0 1 0 1019.723831 0 509.861915 509.861915 0 1 0-1019.723831 0Z" fill="red" p-id="13496"></path><path d="M268.187082 962.708241c-12.828508-6.841871-17.674833-22.948775-10.690423-35.777283 6.841871-12.828508 22.948775-17.532294 35.777283-10.690423 32.926503 17.817372 68.13363 31.643653 105.051225 41.051224 35.919822 8.979955 73.407572 13.683742 112.320713 13.683742 126.432071 0 240.890869-51.171492 323.563474-133.986637 82.815145-82.815145 133.986637-197.131403 133.986637-323.563474 0-126.432071-51.171492-240.890869-133.986637-323.563475-82.815145-82.815145-197.131403-133.986637-323.563474-133.986637-126.432071 0-240.890869 51.171492-323.563475 133.986637s-133.986637 197.131403-133.986637 323.563475c0 55.5902 9.835189 108.757238 27.93764 157.933185 18.815145 51.171492 46.325167 98.066815 80.819599 138.547884 9.550111 11.11804 8.124722 27.7951-2.993319 37.202672-11.11804 9.550111-27.652561 8.124722-36.917594-2.993318-38.770601-45.469933-69.701559-97.639198-90.51225-154.51225-20.240535-54.877506-31.358575-114.316258-31.358575-176.035634C0.071269 372.596882 57.229399 244.88196 149.594655 152.516704 241.959911 60.008909 369.532294 2.85078 510.64588 2.85078 651.616927 2.85078 779.18931 60.008909 871.697105 152.374165c92.222717 92.365256 149.523385 220.080178 149.523385 361.051225s-57.158129 268.685969-149.523385 361.051225C779.18931 966.699332 651.616927 1024 510.64588 1024c-43.18931 0-85.095768-5.416481-125.149221-15.536748-41.478842-10.405345-80.67706-25.942094-117.309577-45.755011z m0 0" fill="red" p-id="13497"></path><path d="M686.253898 464.391982h-131.848553l32.07127-263.839643-259.563475 345.229398h131.706014l-31.928731 264.124722 259.563475-345.514477z m0 0" fill="white" p-id="13498"></path></svg>